<svg width="14" height="14" viewBox="0 0 14 14" fill="none" xmlns="http://www.w3.org/2000/svg">
<path d="M13.207 13.4053L9.05078 8.86621C9.51562 8.38314 9.87337 7.82943 10.124 7.20508C10.3747 6.58073 10.5 5.92676 10.5 5.24316C10.5 4.54134 10.3678 3.87142 10.1035 3.2334C9.83919 2.59538 9.46094 2.03027 8.96875 1.53809C8.46745 1.03678 7.89779 0.653972 7.25977 0.389648C6.62174 0.125325 5.95182 -0.00683594 5.25 -0.00683594C4.54818 -0.00683594 3.87826 0.125325 3.24023 0.389648C2.60221 0.653972 2.03255 1.03678 1.53125 1.53809C1.03906 2.03027 0.660807 2.59538 0.396484 3.2334C0.132161 3.87142 0 4.54134 0 5.24316C0 5.94499 0.132161 6.61491 0.396484 7.25293C0.660807 7.89095 1.03906 8.46061 1.53125 8.96191C2.03255 9.4541 2.60221 9.83236 3.24023 10.0967C3.87826 10.361 4.54818 10.4932 5.25 10.4932C5.85156 10.4932 6.43262 10.3952 6.99316 10.1992C7.55371 10.0033 8.06641 9.71842 8.53125 9.34473L12.6875 13.8838C12.724 13.9202 12.765 13.9476 12.8105 13.9658C12.8561 13.984 12.9017 13.9932 12.9473 13.9932C12.9928 13.9932 13.0361 13.9863 13.0771 13.9727C13.1182 13.959 13.1523 13.9339 13.1797 13.8975C13.2526 13.8337 13.2913 13.7539 13.2959 13.6582C13.3005 13.5625 13.2708 13.4782 13.207 13.4053ZM0.697266 5.24316C0.697266 4.61426 0.818034 4.02409 1.05957 3.47266C1.30111 2.92122 1.62695 2.44043 2.03711 2.03027C2.44727 1.62012 2.92806 1.29427 3.47949 1.05273C4.03092 0.811198 4.62109 0.69043 5.25 0.69043C5.87891 0.69043 6.46908 0.811198 7.02051 1.05273C7.57194 1.29427 8.05273 1.62012 8.46289 2.03027C8.87305 2.44043 9.19889 2.92122 9.44043 3.47266C9.68197 4.02409 9.80273 4.61426 9.80273 5.24316C9.80273 5.87207 9.68197 6.46224 9.44043 7.01367C9.19889 7.5651 8.87305 8.04818 8.46289 8.46289C8.05273 8.8776 7.57194 9.20345 7.02051 9.44043C6.46908 9.67741 5.87891 9.7959 5.25 9.7959C4.62109 9.7959 4.03092 9.67741 3.47949 9.44043C2.92806 9.20345 2.44727 8.8776 2.03711 8.46289C1.62695 8.04818 1.30111 7.5651 1.05957 7.01367C0.818034 6.46224 0.697266 5.87207 0.697266 5.24316Z" fill="#222222"/>
</svg>
