<svg width="14" height="14" viewBox="0 0 14 14" fill="none" xmlns="http://www.w3.org/2000/svg">
<path d="M12.8516 7.10254L10.7461 4.99707C10.6823 4.93327 10.6003 4.90137 10.5 4.90137C10.3997 4.90137 10.3177 4.93327 10.2539 4.99707C10.181 5.06999 10.1445 5.1543 10.1445 5.25C10.1445 5.3457 10.181 5.42546 10.2539 5.48926L11.7578 6.99316H7V2.23535L8.50391 3.73926C8.54036 3.77572 8.5791 3.80306 8.62012 3.82129C8.66113 3.83952 8.70443 3.84863 8.75 3.84863C8.79557 3.84863 8.83887 3.83952 8.87988 3.82129C8.9209 3.80306 8.95964 3.77572 8.99609 3.73926C9.06901 3.67546 9.10547 3.5957 9.10547 3.5C9.10547 3.4043 9.06901 3.31999 8.99609 3.24707L6.9043 1.1416C6.83138 1.0778 6.74707 1.0459 6.65137 1.0459C6.55566 1.0459 6.47135 1.0778 6.39844 1.1416L4.30664 3.24707C4.23372 3.31999 4.19727 3.4043 4.19727 3.5C4.19727 3.5957 4.23372 3.67546 4.30664 3.73926C4.37044 3.81217 4.4502 3.84863 4.5459 3.84863C4.6416 3.84863 4.72591 3.81217 4.79883 3.73926L6.30273 2.23535V6.99316H1.54492L3.04883 5.48926C3.11263 5.42546 3.14453 5.3457 3.14453 5.25C3.14453 5.1543 3.11263 5.06999 3.04883 4.99707C2.97591 4.93327 2.8916 4.90137 2.7959 4.90137C2.7002 4.90137 2.62044 4.93327 2.55664 4.99707L0.451172 7.10254C0.38737 7.16634 0.355469 7.24609 0.355469 7.3418C0.355469 7.4375 0.38737 7.52181 0.451172 7.59473L2.55664 9.7002C2.58398 9.72754 2.62044 9.75033 2.66602 9.76855C2.71159 9.78678 2.75716 9.7959 2.80273 9.7959C2.84831 9.7959 2.8916 9.78678 2.93262 9.76855C2.97363 9.75033 3.01237 9.72754 3.04883 9.7002C3.11263 9.62728 3.14453 9.54297 3.14453 9.44727C3.14453 9.35156 3.11263 9.26725 3.04883 9.19434L1.54492 7.69043H6.30273V12.4482L4.79883 10.9443C4.72591 10.8805 4.6416 10.8486 4.5459 10.8486C4.4502 10.8486 4.37044 10.8805 4.30664 10.9443C4.23372 11.0173 4.19727 11.1016 4.19727 11.1973C4.19727 11.293 4.23372 11.3773 4.30664 11.4502L6.39844 13.542C6.4349 13.5785 6.47363 13.6058 6.51465 13.624C6.55566 13.6423 6.59896 13.6514 6.64453 13.6514C6.6901 13.6514 6.73568 13.6423 6.78125 13.624C6.82682 13.6058 6.86784 13.5785 6.9043 13.542L8.99609 11.4502C9.06901 11.3773 9.10547 11.293 9.10547 11.1973C9.10547 11.1016 9.06901 11.0173 8.99609 10.9443C8.93229 10.8805 8.85026 10.8486 8.75 10.8486C8.64974 10.8486 8.56771 10.8805 8.50391 10.9443L7 12.4482V7.69043H11.7578L10.2539 9.19434C10.181 9.26725 10.1445 9.35156 10.1445 9.44727C10.1445 9.54297 10.181 9.62728 10.2539 9.7002C10.2904 9.72754 10.3291 9.75033 10.3701 9.76855C10.4111 9.78678 10.4544 9.7959 10.5 9.7959C10.5456 9.7959 10.5889 9.78678 10.6299 9.76855C10.6709 9.75033 10.7096 9.72754 10.7461 9.7002L12.8516 7.59473C12.9154 7.52181 12.9473 7.4375 12.9473 7.3418C12.9473 7.24609 12.9154 7.16634 12.8516 7.10254Z" fill="white"/>
</svg>
