<svg width="14" height="14" viewBox="0 0 14 14" fill="none" xmlns="http://www.w3.org/2000/svg">
<path d="M6.64453 13.2959C6.61719 13.2959 6.58984 13.2913 6.5625 13.2822C6.53516 13.2731 6.50781 13.264 6.48047 13.2549C6.46224 13.2458 6.3597 13.1842 6.17285 13.0703C5.986 12.9564 5.74219 12.7992 5.44141 12.5986C5.14062 12.3981 4.80111 12.1566 4.42285 11.874C4.0446 11.5915 3.65951 11.2679 3.26758 10.9033C2.79362 10.484 2.37207 10.0579 2.00293 9.625C1.63379 9.19206 1.3125 8.76139 1.03906 8.33301C0.692708 7.78613 0.432943 7.23926 0.259766 6.69238C0.0865885 6.14551 0 5.60319 0 5.06543C0 4.56413 0.0957031 4.09017 0.287109 3.64355C0.478516 3.19694 0.74056 2.80729 1.07324 2.47461C1.40592 2.14193 1.79557 1.87988 2.24219 1.68848C2.6888 1.49707 3.16732 1.40137 3.67773 1.40137C4.01497 1.40137 4.36133 1.46289 4.7168 1.58594C5.07227 1.70898 5.40951 1.889 5.72852 2.12598C5.91081 2.2627 6.08171 2.41081 6.24121 2.57031C6.40072 2.72982 6.53516 2.89616 6.64453 3.06934C6.76302 2.89616 6.90202 2.72982 7.06152 2.57031C7.22103 2.41081 7.39193 2.2627 7.57422 2.12598C7.89323 1.889 8.22819 1.70898 8.5791 1.58594C8.93001 1.46289 9.27865 1.40137 9.625 1.40137C10.1354 1.40137 10.6117 1.49707 11.0537 1.68848C11.4958 1.87988 11.8831 2.14193 12.2158 2.47461C12.5485 2.80729 12.8128 3.19694 13.0088 3.64355C13.2048 4.09017 13.3027 4.56413 13.3027 5.06543C13.3027 5.60319 13.2161 6.14551 13.043 6.69238C12.8698 7.23926 12.61 7.78613 12.2637 8.33301C11.9902 8.76139 11.6667 9.19206 11.293 9.625C10.9193 10.0579 10.5 10.484 10.0352 10.9033C9.63411 11.2679 9.24447 11.5915 8.86621 11.874C8.48796 12.1566 8.15072 12.3981 7.85449 12.5986C7.55827 12.7992 7.31673 12.9564 7.12988 13.0703C6.94303 13.1842 6.84049 13.2458 6.82227 13.2549C6.79492 13.264 6.76758 13.2731 6.74023 13.2822C6.71289 13.2913 6.68099 13.2959 6.64453 13.2959ZM3.67773 2.09863C3.26758 2.09863 2.88249 2.17611 2.52246 2.33105C2.16243 2.486 1.8457 2.69792 1.57227 2.9668C1.29883 3.23568 1.08464 3.55013 0.929688 3.91016C0.77474 4.27018 0.697266 4.65527 0.697266 5.06543C0.697266 5.60319 0.79069 6.12272 0.977539 6.62402C1.16439 7.12533 1.40365 7.60156 1.69531 8.05273C1.98698 8.50391 2.31283 8.92773 2.67285 9.32422C3.03288 9.7207 3.38151 10.0739 3.71875 10.3838C4.33854 10.9398 4.92643 11.4046 5.48242 11.7783C6.03841 12.152 6.42578 12.4072 6.64453 12.5439C6.8724 12.4072 7.26432 12.152 7.82031 11.7783C8.3763 11.4046 8.95964 10.9398 9.57031 10.3838C9.91667 10.0739 10.2699 9.7207 10.6299 9.32422C10.9899 8.92773 11.3158 8.50391 11.6074 8.05273C11.8991 7.60156 12.1383 7.12533 12.3252 6.62402C12.512 6.12272 12.6055 5.60319 12.6055 5.06543C12.6055 4.65527 12.5257 4.27018 12.3662 3.91016C12.2067 3.55013 11.9925 3.23568 11.7236 2.9668C11.4548 2.69792 11.1403 2.486 10.7803 2.33105C10.4202 2.17611 10.0352 2.09863 9.625 2.09863C9.03255 2.09863 8.48112 2.29915 7.9707 2.7002C7.46029 3.10124 7.13216 3.52051 6.98633 3.95801C6.95898 4.03092 6.91569 4.08789 6.85645 4.12891C6.7972 4.16992 6.72656 4.19043 6.64453 4.19043C6.57161 4.19043 6.50553 4.16992 6.44629 4.12891C6.38704 4.08789 6.34375 4.03092 6.31641 3.95801C6.17057 3.52051 5.84245 3.10124 5.33203 2.7002C4.82161 2.29915 4.27018 2.09863 3.67773 2.09863Z" fill="white"/>
</svg>
