<svg width="14" height="14" viewBox="0 0 14 14" fill="none" xmlns="http://www.w3.org/2000/svg">
<path d="M13.9043 6.0498C13.8314 5.97689 13.7471 5.94043 13.6514 5.94043C13.5557 5.94043 13.4714 5.97689 13.3984 6.0498L12.5918 6.85645C12.5736 6.13639 12.4255 5.44824 12.1475 4.79199C11.8695 4.13574 11.4753 3.55241 10.9648 3.04199C10.7005 2.77767 10.4157 2.54297 10.1104 2.33789C9.80501 2.13281 9.48372 1.95964 9.14648 1.81836C8.80924 1.67708 8.46061 1.57227 8.10059 1.50391C7.74056 1.43555 7.3737 1.40137 7 1.40137C6.48047 1.40137 5.97461 1.46973 5.48242 1.60645C4.99023 1.74316 4.52995 1.94141 4.10156 2.20117C3.67318 2.46094 3.28353 2.77539 2.93262 3.14453C2.58171 3.51367 2.28776 3.92611 2.05078 4.38184C2.00521 4.46387 1.99609 4.55273 2.02344 4.64844C2.05078 4.74414 2.10547 4.81478 2.1875 4.86035C2.27865 4.90592 2.36979 4.91276 2.46094 4.88086C2.55208 4.84896 2.62044 4.79199 2.66602 4.70996C2.87565 4.30892 3.13542 3.94661 3.44531 3.62305C3.75521 3.29948 4.09701 3.02376 4.4707 2.7959C4.8444 2.56803 5.24544 2.39486 5.67383 2.27637C6.10221 2.15788 6.54427 2.09863 7 2.09863C7.66536 2.09863 8.28971 2.22168 8.87305 2.46777C9.45638 2.71387 9.96908 3.05111 10.4111 3.47949C10.8532 3.90788 11.2064 4.41146 11.4707 4.99023C11.735 5.56901 11.8763 6.18652 11.8945 6.84277L11.1016 6.0498C11.0286 5.97689 10.9443 5.94043 10.8486 5.94043C10.7529 5.94043 10.6732 5.97689 10.6094 6.0498C10.5365 6.11361 10.5 6.19564 10.5 6.2959C10.5 6.39616 10.5365 6.47819 10.6094 6.54199L12.0039 7.9502C12.0404 7.97754 12.0791 8.00033 12.1201 8.01855C12.1611 8.03678 12.2044 8.0459 12.25 8.0459C12.2956 8.0459 12.3389 8.03678 12.3799 8.01855C12.4209 8.00033 12.4596 7.97754 12.4961 7.9502L13.9043 6.54199C13.9681 6.47819 14 6.39616 14 6.2959C14 6.19564 13.9681 6.11361 13.9043 6.0498ZM11.8125 9.13965C11.7214 9.09408 11.6302 9.08496 11.5391 9.1123C11.4479 9.13965 11.3796 9.19434 11.334 9.27637C11.1243 9.68652 10.8646 10.0511 10.5547 10.3701C10.2448 10.6891 9.90299 10.9626 9.5293 11.1904C9.1556 11.4183 8.75456 11.5938 8.32617 11.7168C7.89779 11.8398 7.45573 11.9014 7 11.9014C6.33464 11.9014 5.71029 11.776 5.12695 11.5254C4.54362 11.2747 4.03092 10.9352 3.58887 10.5068C3.14681 10.0785 2.79362 9.57487 2.5293 8.99609C2.26497 8.41732 2.1237 7.7998 2.10547 7.14355L2.89844 7.9502C2.9349 7.97754 2.97363 8.00033 3.01465 8.01855C3.05566 8.03678 3.09896 8.0459 3.14453 8.0459C3.1901 8.0459 3.23568 8.03678 3.28125 8.01855C3.32682 8.00033 3.36784 7.97754 3.4043 7.9502C3.4681 7.87728 3.5 7.79297 3.5 7.69727C3.5 7.60156 3.4681 7.51725 3.4043 7.44434L1.99609 6.0498C1.93229 5.97689 1.85026 5.94043 1.75 5.94043C1.64974 5.94043 1.56771 5.97689 1.50391 6.0498L0.0957031 7.44434C0.031901 7.51725 0 7.60156 0 7.69727C0 7.79297 0.031901 7.87728 0.0957031 7.9502C0.16862 8.014 0.25293 8.0459 0.348633 8.0459C0.444336 8.0459 0.528646 8.014 0.601562 7.9502L1.4082 7.14355C1.42643 7.86361 1.57454 8.55176 1.85254 9.20801C2.13053 9.86426 2.52474 10.4476 3.03516 10.958C3.29948 11.2223 3.58431 11.457 3.88965 11.6621C4.19499 11.8672 4.51628 12.0381 4.85352 12.1748C5.19076 12.3115 5.53939 12.4163 5.89941 12.4893C6.25944 12.5622 6.6263 12.5986 7 12.5986C7.51953 12.5986 8.02539 12.528 8.51758 12.3867C9.00977 12.2454 9.47005 12.0472 9.89844 11.792C10.3268 11.5368 10.7165 11.2246 11.0674 10.8555C11.4183 10.4863 11.7122 10.0693 11.9492 9.60449C11.9948 9.52246 12.0039 9.43587 11.9766 9.34473C11.9492 9.25358 11.8945 9.18522 11.8125 9.13965Z" fill="white"/>
</svg>
