<svg width="14" height="16" viewBox="0 0 14 16" fill="none" xmlns="http://www.w3.org/2000/svg">
<path d="M10.7188 3.28125V1.3125C10.7188 0.601562 10.0898 0 9.35156 0H4.64844C3.91016 0 3.30859 0.601562 3.30859 1.3125V3.28125H0.820312V14H13.1797V3.28125H10.7188ZM4.12891 1.3125C4.12891 1.03906 4.375 0.820312 4.64844 0.820312H9.35156C9.65234 0.820312 9.87109 1.03906 9.87109 1.3125V3.28125H4.12891V1.3125ZM12.3594 13.1797H1.64062V6.58984H12.3594V13.1797ZM12.3594 5.76953H1.64062V4.12891H3.30859V4.64844H4.12891V4.12891H9.87109V4.64844H10.7188V4.12891H12.3594V5.76953Z" fill="#222222"/>
</svg>
